HIERARCHY
ROOT Hips
{
    OFFSET   0.000000   0.000000   0.000000
    CHANNELS 6 Xposition Yposition Zposition Zrotation Xrotation Yrotation
    JOINT Chest
    {
        OFFSET   0.000000   8.007230   0.000000
        CHANNELS 3 Zrotation Xrotation Yrotation
        JOINT Chest2
        {
            OFFSET   0.000000  22.077100   0.000000
            CHANNELS 3 Zrotation Xrotation Yrotation
            JOINT Neck
            {
                OFFSET   0.000000  23.254700   0.000000
                CHANNELS 3 Zrotation Xrotation Yrotation
                JOINT Head
                {
                    OFFSET   0.000010  14.370000   1.956610
                    CHANNELS 3 Zrotation Xrotation Yrotation
                    End Site
                    {
                        OFFSET   0.000000  19.566000   0.000000
                    }
                }
            }
            JOINT LeftCollar
            {
                OFFSET   3.911900  19.017000  -0.467063
                CHANNELS 3 Zrotation Xrotation Yrotation
                JOINT LeftShoulder
                {
                    OFFSET  10.383700   0.000000   0.000000
                    CHANNELS 3 Zrotation Xrotation Yrotation
                    JOINT LeftElbow
                    {
                        OFFSET  26.662100   0.001671   0.000522
                        CHANNELS 3 Zrotation Xrotation Yrotation
                        JOINT LeftWrist
                        {
                            OFFSET  28.869000   0.000037  -0.000114
                            CHANNELS 3 Zrotation Xrotation Yrotation
                            JOINT LeftFinger0
                            {
                                OFFSET   2.044650  -2.323450   3.252850
                                CHANNELS 3 Zrotation Xrotation Yrotation
                                JOINT LeftFinger01
                                {
                                    OFFSET   3.088140   0.000000   0.000000
                                    CHANNELS 3 Zrotation Xrotation Yrotation
                                    JOINT LeftFinger02
                                    {
                                        OFFSET   2.639460   0.000000   0.000000
                                        CHANNELS 3 Zrotation Xrotation Yrotation
                                        End Site
                                        {
                                            OFFSET   2.582190   0.000000   0.000000
                                        }
                                    }
                                }
                            }
                            JOINT LeftFinger1
                            {
                                OFFSET   8.364480   0.000000   3.252850
                                CHANNELS 3 Zrotation Xrotation Yrotation
                                JOINT LeftFinger11
                                {
                                    OFFSET   4.646930   0.000000   0.000000
                                    CHANNELS 3 Zrotation Xrotation Yrotation
                                    JOINT LeftFinger12
                                    {
                                        OFFSET   2.323470   0.000000   0.000000
                                        CHANNELS 3 Zrotation Xrotation Yrotation
                                        End Site
                                        {
                                            OFFSET   2.273050   0.000000   0.000000
                                        }
                                    }
                                }
                            }
                            JOINT LeftFinger2
                            {
                                OFFSET   8.364490   0.000016   1.078090
                                CHANNELS 3 Zrotation Xrotation Yrotation
                                JOINT LeftFinger21
                                {
                                    OFFSET   5.111620   0.000000   0.000000
                                    CHANNELS 3 Zrotation Xrotation Yrotation
                                    JOINT LeftFinger22
                                    {
                                        OFFSET   2.788150   0.000013   0.000000
                                        CHANNELS 3 Zrotation Xrotation Yrotation
                                        End Site
                                        {
                                            OFFSET   2.727660   0.000000   0.000000
                                        }
                                    }
                                }
                            }
                            JOINT LeftFinger3
                            {
                                OFFSET   7.899780   0.000016  -1.078090
                                CHANNELS 3 Zrotation Xrotation Yrotation
                                JOINT LeftFinger31
                                {
                                    OFFSET   4.646930   0.000000   0.000000
                                    CHANNELS 3 Zrotation Xrotation Yrotation
                                    JOINT LeftFinger32
                                    {
                                        OFFSET   2.323470   0.000000   0.000000
                                        CHANNELS 3 Zrotation Xrotation Yrotation
                                        End Site
                                        {
                                            OFFSET   2.273050   0.000000   0.000000
                                        }
                                    }
                                }
                            }
                            JOINT LeftFinger4
                            {
                                OFFSET   7.435080   0.000000  -3.252850
                                CHANNELS 3 Zrotation Xrotation Yrotation
                                JOINT LeftFinger41
                                {
                                    OFFSET   3.717550   0.000000   0.000000
                                    CHANNELS 3 Zrotation Xrotation Yrotation
                                    JOINT LeftFinger42
                                    {
                                        OFFSET   1.858760   0.000000   0.000000
                                        CHANNELS 3 Zrotation Xrotation Yrotation
                                        End Site
                                        {
                                            OFFSET   1.818440   0.000000   0.000000
                                        }
                                    }
                                }
                            }
                        }
                    }
                }
            }
            JOINT RightCollar
            {
                OFFSET  -3.911900  19.017000  -0.467064
                CHANNELS 3 Zrotation Xrotation Yrotation
                JOINT RightShoulder
                {
                    OFFSET -10.383700   0.000000   0.000000
                    CHANNELS 3 Zrotation Xrotation Yrotation
                    JOINT RightElbow
                    {
                        OFFSET -26.662100   0.001633   0.000260
                        CHANNELS 3 Zrotation Xrotation Yrotation
                        JOINT RightWrist
                        {
                            OFFSET -28.869000  -0.000045  -0.000080
                            CHANNELS 3 Zrotation Xrotation Yrotation
                            JOINT RightFinger0
                            {
                                OFFSET  -2.044660  -2.323490   3.252850
                                CHANNELS 3 Zrotation Xrotation Yrotation
                                JOINT RightFinger01
                                {
                                    OFFSET  -3.088140   0.000000   0.000000
                                    CHANNELS 3 Zrotation Xrotation Yrotation
                                    JOINT RightFinger02
                                    {
                                        OFFSET  -2.639450   0.000000   0.000000
                                        CHANNELS 3 Zrotation Xrotation Yrotation
                                        End Site
                                        {
                                            OFFSET  -2.582190   0.000000   0.000000
                                        }
                                    }
                                }
                            }
                            JOINT RightFinger1
                            {
                                OFFSET  -8.364480   0.000000   3.252850
                                CHANNELS 3 Zrotation Xrotation Yrotation
                                JOINT RightFinger11
                                {
                                    OFFSET  -4.646920   0.000000   0.000000
                                    CHANNELS 3 Zrotation Xrotation Yrotation
                                    JOINT RightFinger12
                                    {
                                        OFFSET  -2.323470   0.000000   0.000000
                                        CHANNELS 3 Zrotation Xrotation Yrotation
                                        End Site
                                        {
                                            OFFSET  -2.273050   0.000000   0.000000
                                        }
                                    }
                                }
                            }
                            JOINT RightFinger2
                            {
                                OFFSET  -8.364480   0.000000   1.078090
                                CHANNELS 3 Zrotation Xrotation Yrotation
                                JOINT RightFinger21
                                {
                                    OFFSET  -5.111610   0.000000   0.000000
                                    CHANNELS 3 Zrotation Xrotation Yrotation
                                    JOINT RightFinger22
                                    {
                                        OFFSET  -2.788160   0.000000   0.000000
                                        CHANNELS 3 Zrotation Xrotation Yrotation
                                        End Site
                                        {
                                            OFFSET  -2.727660   0.000000   0.000000
                                        }
                                    }
                                }
                            }
                            JOINT RightFinger3
                            {
                                OFFSET  -7.899780   0.000000  -1.078090
                                CHANNELS 3 Zrotation Xrotation Yrotation
                                JOINT RightFinger31
                                {
                                    OFFSET  -4.646930   0.000000   0.000000
                                    CHANNELS 3 Zrotation Xrotation Yrotation
                                    JOINT RightFinger32
                                    {
                                        OFFSET  -2.323470   0.000000   0.000000
                                        CHANNELS 3 Zrotation Xrotation Yrotation
                                        End Site
                                        {
                                            OFFSET  -2.273050   0.000000   0.000000
                                        }
                                    }
                                }
                            }
                            JOINT RightFinger4
                            {
                                OFFSET  -7.435090   0.000000  -3.252850
                                CHANNELS 3 Zrotation Xrotation Yrotation
                                JOINT RightFinger41
                                {
                                    OFFSET  -3.717550   0.000000   0.000000
                                    CHANNELS 3 Zrotation Xrotation Yrotation
                                    JOINT RightFinger42
                                    {
                                        OFFSET  -1.858760   0.000000   0.000000
                                        CHANNELS 3 Zrotation Xrotation Yrotation
                                        End Site
                                        {
                                            OFFSET  -1.818440   0.000000   0.000000
                                        }
                                    }
                                }
                            }
                        }
                    }
                }
            }
        }
    }
    JOINT LeftHip
    {
        OFFSET   9.782990   0.000000   0.000000
        CHANNELS 3 Zrotation Xrotation Yrotation
        JOINT LeftKnee
        {
            OFFSET  -0.000063 -41.789100   0.001657
            CHANNELS 3 Zrotation Xrotation Yrotation
            JOINT LeftAnkle
            {
                OFFSET   0.000078 -41.133200  -0.000113
                CHANNELS 3 Zrotation Xrotation Yrotation
                JOINT LeftToe
                {
                    OFFSET   0.000000  -6.358970  14.674500
                    CHANNELS 3 Zrotation Xrotation Yrotation
                    End Site
                    {
                        OFFSET   0.000000   0.000000   3.913200
                    }
                }
            }
        }
    }
    JOINT RightHip
    {
        OFFSET  -9.782990   0.000000   0.000000
        CHANNELS 3 Zrotation Xrotation Yrotation
        JOINT RightKnee
        {
            OFFSET   0.000053 -41.789200   0.000277
            CHANNELS 3 Zrotation Xrotation Yrotation
            JOINT RightAnkle
            {
                OFFSET   0.000030 -41.133200  -0.000150
                CHANNELS 3 Zrotation Xrotation Yrotation
                JOINT RightToe
                {
                    OFFSET   0.000000  -6.358960  14.674500
                    CHANNELS 3 Zrotation Xrotation Yrotation
                    End Site
                    {
                        OFFSET   0.000000   0.000000   3.913200
                    }
                }
            }
        }
    }
}
MOTION
Frames: 4
Frame Time:   0.016667
 -0.782584  89.461000  -0.493453  -0.784498  -9.141770  -1.911780  -0.414696   6.576810   0.866292  -0.939593  13.146300   1.798800   0.060741  -1.149420  -0.004064   0.101884  -2.330930   4.478870  -6.750500  -1.822890   4.289830 -70.101100  18.912800  -5.320580  -0.268115  -1.657630 -19.673900  13.170300  -4.667360   3.259230  44.004600  40.625800 -69.257500 -32.728700   0.000000   0.000341 -11.364300   0.001548   0.000000 -33.840200   5.796640  -8.571450 -28.028100   0.008205   0.001569 -19.629800   0.011861   0.000455 -28.617000  -2.918930   5.332030 -40.352300   0.005688   0.001964 -26.889600  -0.005589   0.001045 -28.671300  -2.923100   5.329740 -42.677100  -0.005133   0.001512 -28.423000  -0.004579   0.001144 -36.720100  -3.642060   4.867570 -55.312500  -0.005454  -0.001032 -36.838100  -0.002551  -0.009951  11.849000   2.121950   9.706190  66.930700   3.421460  -0.339663  -3.858640  -5.516520  15.382200 -10.764100  -0.817326   4.593290 -49.885200  42.322100  82.400500  23.830100   0.002714  -0.005965   6.915060  -0.001543  -0.001235  33.788500   7.021760  10.355400  28.166500  -0.001819   0.000787  19.716500  -0.001085   0.001003  28.772600   1.135650   2.052370  42.122700  -0.000157  -0.005234  28.053700  -0.012114  -0.004441  28.690900   0.395124   0.703818  39.026300   0.001727  -0.004430  25.991500   0.001736  -0.003071  36.304000  -0.074994  -0.102109  54.456200   0.004823  -0.004889  36.267800   0.001584  -0.005837   0.756559  12.322900   6.086850   0.615176   0.517693   3.542210  -1.772290  -3.966890  -0.550206   0.000000   0.000000   0.000000  -0.235922  12.221000   3.012450  -0.166235   0.287350 -12.703800   0.508591  -3.940160  -1.090840   0.000000   0.000000  -0.000000
 -0.772962  89.461000  -0.489041  -0.779452  -9.141530  -1.945170  -0.421152   6.576810   0.865801  -0.952632  13.146300   1.798790   0.060751  -1.149350  -0.004058   0.101999  -2.330860   4.482330  -6.750760  -1.818450   4.289830 -70.092500  18.924700  -5.330280  -0.250389  -1.651960 -19.725900  13.172600  -4.676680   3.280200  44.051300  40.657900 -69.317200 -32.703200  -0.000000   0.000337 -11.351600   0.001545   0.000000 -33.835600   5.813450  -8.596210 -28.029900   0.008206   0.001567 -19.629900   0.011865   0.000462 -28.619600  -2.905300   5.307000 -40.358300   0.005690   0.001965 -26.890100  -0.005588   0.001045 -28.673900  -2.909450   5.304720 -42.690000  -0.005134   0.001511 -28.431500  -0.004579   0.001144 -36.735000  -3.626390   4.843690 -55.332500  -0.005454  -0.001031 -36.851500  -0.002550  -0.009951  11.847700   2.129200   9.711650  66.936900   3.413660  -0.350681  -3.893230  -5.500820  15.465200 -10.751900  -0.848055   4.608800 -49.897800  42.337400  82.378400  23.853900   0.002714  -0.005965   6.926980  -0.001544  -0.001237  33.767700   7.017810  10.355400  28.149100  -0.001820   0.000787  19.704300  -0.001082   0.001001  28.772200   1.135780   2.061000  42.081400  -0.000160  -0.005233  28.026200  -0.012117  -0.004444  28.690800   0.395123   0.711421  38.998900   0.001729  -0.004428  25.973300   0.001736  -0.003071  36.283700  -0.069844  -0.095057  54.425800   0.004826  -0.004884  36.247500   0.001586  -0.005837   0.738808  12.354500   6.095410   0.614281   0.485045   3.556860  -1.768420  -3.964700  -0.536685   0.000000   0.000000   0.000000  -0.251417  12.268400   3.021330  -0.173087   0.241808 -12.688500   0.515897  -3.940320  -1.080110   0.000000   0.000000   0.000000
 -0.757235  89.461000  -0.481242  -0.777444  -9.141110  -1.998870  -0.431378   6.576820   0.865310  -0.973179  13.146200   1.798780   0.060769  -1.149220  -0.004051   0.102211  -2.330690   4.491080  -6.751100  -1.812080   4.289820 -70.078300  18.944800  -5.346550  -0.222263  -1.643340 -19.806500  13.176600  -4.689080   3.318740  44.098200  40.689900 -69.377000 -32.666300  -0.000000   0.000330 -11.333200   0.001541   0.000000 -33.831100   5.830260  -8.620970 -28.033100   0.008208   0.001565 -19.630100   0.011869   0.000474 -28.622100  -2.891680   5.281960 -40.364300   0.005697   0.001965 -26.890600  -0.005588   0.001045 -28.676400  -2.895800   5.279700 -42.708600  -0.005135   0.001511 -28.443900  -0.004579   0.001144 -36.755000  -3.610710   4.819820 -55.360500  -0.005455  -0.001027 -36.870100  -0.002549  -0.009951  11.845600   2.140110   9.721210  66.947300   3.402270  -0.366016  -3.948400  -5.475450  15.596100 -10.732500  -0.895316   4.624320 -49.908700  42.350700  82.342200  23.890700   0.002715  -0.005964   6.945370  -0.001546  -0.001238  33.738700   7.011500  10.355500  28.124800  -0.001822   0.000787  19.687300  -0.001077   0.000999  28.771600   1.135970   2.069630  42.020000  -0.000162  -0.005230  27.985300  -0.012120  -0.004450  28.690800   0.395124   0.721887  38.958700   0.001733  -0.004423  25.946500   0.001736  -0.003072  36.252100  -0.062098  -0.084716  54.378200   0.004831  -0.004877  36.215800   0.001588  -0.005837   0.712242  12.397400   6.109030   0.614067   0.440651   3.580560  -1.761890  -3.961860  -0.515340   0.000000   0.000000  -0.000000  -0.275220  12.315800   3.035850  -0.179947   0.196267 -12.663800   0.527952  -3.940490  -1.063130   0.000000   0.000000   0.000000
 -0.745248  89.461100  -0.474030  -0.783457  -9.140720  -2.038120  -0.438451   6.576800   0.865898  -0.987480  13.146000   1.800580   0.060791  -1.149040  -0.004049   0.102457  -2.330460   4.504440  -6.751220  -1.808830   4.287720 -70.066900  18.960700  -5.359920  -0.202173  -1.637310 -19.859600  13.180100  -4.692580   3.357490  44.102600  40.682000 -69.369500 -32.646300   0.000000   0.000323 -11.324300   0.001537  -0.000000 -33.828600   5.826470  -8.614990 -28.036700   0.008217   0.001568 -19.630400   0.011866   0.000480 -28.621300  -2.895590   5.289120 -40.363400   0.005705   0.001966 -26.886600  -0.005587   0.001046 -28.675700  -2.899720   5.286860 -42.718700  -0.005138   0.001513 -28.450600  -0.004579   0.001143 -36.762600  -3.616040   4.826040 -55.372300  -0.005456  -0.001023 -36.878000  -0.002549  -0.009951  11.844000   2.147170   9.729460  66.955800   3.395710  -0.372265  -3.988300  -5.456410  15.688500 -10.718900  -0.925722   4.623980 -49.890200  42.344500  82.306500  23.914100   0.002720  -0.005982   6.957070  -0.001548  -0.001234  33.726600   7.006080  10.355600  28.114600  -0.001815   0.000787  19.680200  -0.001076   0.001003  28.771200   1.136050   2.069530  41.984600  -0.000158  -0.005225  27.961800  -0.012118  -0.004458  28.690800   0.396803   0.725740  38.936300   0.001736  -0.004413  25.931600   0.001735  -0.003077  36.229400  -0.057504  -0.078613  54.344200   0.004832  -0.004871  36.193300   0.001591  -0.005838   0.697183  12.408100   6.118570   0.617160   0.426307   3.598510  -1.756130  -3.961110  -0.500728  -0.000000   0.000000   0.000000  -0.286898  12.214900   3.046360  -0.178031   0.298609 -12.645500   0.537414  -3.938390  -1.051420  -0.000000   0.000000   0.000000
